<svg width="1924" height="251" viewBox="0 0 1924 251" fill="none" xmlns="http://www.w3.org/2000/svg">
<path d="M742.837 223.17C725.972 223.17 710.359 219.079 695.999 210.897C681.806 202.715 670.534 191.444 662.185 177.084C654.003 162.723 649.912 146.86 649.912 129.494C649.912 112.128 654.003 96.2646 662.185 81.9042C670.534 67.5438 681.806 56.2726 695.999 48.0905C710.359 39.9084 725.972 35.8174 742.837 35.8174C756.029 35.8174 768.385 38.1551 779.907 42.8306C791.596 47.5061 801.197 54.1018 808.711 62.6179L793.432 77.8967C787.755 70.8835 780.408 65.5401 771.391 61.8665C762.541 58.0259 753.023 56.1056 742.837 56.1056C730.314 56.1056 718.541 59.1948 707.521 65.3731C696.667 71.3844 687.9 79.9839 681.221 91.1717C674.709 102.192 671.453 114.966 671.453 129.494C671.453 144.021 674.709 156.879 681.221 168.067C687.9 179.087 696.667 187.687 707.521 193.865C718.541 199.876 730.314 202.882 742.837 202.882C754.86 202.882 764.879 201.045 772.894 197.372C781.076 193.531 788.173 188.522 794.184 182.343C798.525 177.668 802.032 171.991 804.704 165.311C807.375 158.632 808.962 151.368 809.463 143.52H743.338V123.733H829.5C830.335 128.408 830.753 132.75 830.753 136.758C830.753 147.778 828.999 158.549 825.493 169.068C821.986 179.421 816.392 188.522 808.711 196.37C791.846 214.237 769.888 223.17 742.837 223.17Z" fill="#F8F9FA"/>
<path d="M861.698 39.8249H916.05C934.418 39.8249 950.448 43.6655 964.141 51.3466C977.833 58.8608 988.353 69.3806 995.7 82.9061C1003.05 96.4316 1006.72 111.961 1006.72 129.494C1006.72 147.027 1003.05 162.556 995.7 176.082C988.353 189.607 977.833 200.21 964.141 207.892C950.448 215.406 934.418 219.163 916.05 219.163H861.698V39.8249ZM916.05 198.875C937.257 198.875 954.038 192.78 966.395 180.59C978.752 168.4 984.93 151.368 984.93 129.494C984.93 107.619 978.752 90.5872 966.395 78.3976C954.038 66.208 937.257 60.1132 916.05 60.1132H882.988V198.875H916.05Z" fill="#F8F9FA"/>
<path d="M1121.48 223.17C1104.62 223.17 1089 219.079 1074.64 210.897C1060.45 202.715 1049.18 191.444 1040.83 177.084C1032.65 162.723 1028.56 146.86 1028.56 129.494C1028.56 112.128 1032.65 96.2646 1040.83 81.9042C1049.18 67.5438 1060.45 56.2726 1074.64 48.0905C1089 39.9084 1104.62 35.8174 1121.48 35.8174C1134.67 35.8174 1147.03 38.1551 1158.55 42.8306C1170.24 47.5061 1179.84 54.1018 1187.35 62.6179L1172.08 77.8967C1166.4 70.8835 1159.05 65.5401 1150.03 61.8665C1141.18 58.0259 1131.67 56.1056 1121.48 56.1056C1108.96 56.1056 1097.18 59.1948 1086.16 65.3731C1075.31 71.3844 1066.54 79.9839 1059.86 91.1717C1053.35 102.192 1050.1 114.966 1050.1 129.494C1050.1 144.021 1053.35 156.879 1059.86 168.067C1066.54 179.087 1075.31 187.687 1086.16 193.865C1097.18 199.876 1108.96 202.882 1121.48 202.882C1133.5 202.882 1143.52 201.045 1151.54 197.372C1159.72 193.531 1166.82 188.522 1172.83 182.343C1177.17 177.668 1180.67 171.991 1183.35 165.311C1186.02 158.632 1187.6 151.368 1188.11 143.52H1121.98V123.733H1208.14C1208.98 128.408 1209.4 132.75 1209.4 136.758C1209.4 147.778 1207.64 158.549 1204.14 169.068C1200.63 179.421 1195.04 188.522 1187.35 196.37C1170.49 214.237 1148.53 223.17 1121.48 223.17Z" fill="#F8F9FA"/>
<path d="M1298.56 39.8249H1358.92C1368.94 39.8249 1378.21 42.0792 1386.72 46.5877C1395.4 51.0962 1402.25 57.4415 1407.26 65.6235C1412.44 73.6386 1415.03 82.7391 1415.03 92.925C1415.03 103.111 1412.44 112.295 1407.26 120.477C1402.25 128.492 1395.4 134.754 1386.72 139.262C1378.21 143.771 1368.94 146.025 1358.92 146.025H1319.85V219.163H1298.56V39.8249ZM1359.67 125.737C1366.35 125.737 1372.19 124.15 1377.2 120.978C1382.38 117.805 1386.3 113.714 1388.98 108.705C1391.81 103.695 1393.23 98.4354 1393.23 92.925C1393.23 87.4146 1391.81 82.1547 1388.98 77.1452C1386.3 72.1358 1382.38 68.0448 1377.2 64.8721C1372.19 61.6995 1366.35 60.1132 1359.67 60.1132H1319.85V125.737H1359.67Z" fill="#F8F9FA"/>
<path d="M1424.1 94.9287H1446.14L1475.19 191.611H1475.44L1507 94.9287H1529.04L1560.6 191.611H1560.85L1589.91 94.9287H1611.2L1570.87 219.163H1549.58L1517.52 120.727L1485.71 219.163H1464.42L1424.1 94.9287Z" fill="#F8F9FA"/>
<path d="M1666.06 223.17C1657.04 223.17 1648.86 221.417 1641.51 217.91C1634.33 214.237 1628.65 209.227 1624.48 202.882C1620.47 196.37 1618.47 189.106 1618.47 181.091C1618.47 167.9 1623.4 157.63 1633.25 150.283C1643.27 142.936 1656.04 139.262 1671.57 139.262C1679.25 139.262 1686.18 140.097 1692.36 141.767C1698.54 143.437 1703.46 145.274 1707.14 147.277V140.765C1707.14 134.754 1705.55 129.41 1702.38 124.735C1699.37 119.892 1695.28 116.219 1690.1 113.714C1684.93 111.042 1679.33 109.707 1673.32 109.707C1659.13 109.707 1648.28 115.467 1640.76 126.989L1622.98 115.217C1628.15 107.536 1635 101.608 1643.52 97.4335C1652.03 93.092 1661.63 90.9212 1672.32 90.9212C1689.35 90.9212 1702.79 95.5132 1712.65 104.697C1722.5 113.881 1727.42 126.238 1727.42 141.767V219.163H1707.14V200.878H1706.13C1702.13 207.224 1696.7 212.567 1689.85 216.909C1683.01 221.083 1675.08 223.17 1666.06 223.17ZM1667.81 204.385C1674.49 204.385 1680.84 202.632 1686.85 199.125C1692.86 195.618 1697.7 190.859 1701.38 184.848C1705.22 178.837 1707.14 172.325 1707.14 165.311C1697.79 159.3 1687.01 156.294 1674.83 156.294C1664.31 156.294 1655.87 158.716 1649.53 163.558C1643.35 168.234 1640.26 174.245 1640.26 181.592C1640.26 188.271 1643.02 193.782 1648.53 198.123C1654.04 202.298 1660.46 204.385 1667.81 204.385Z" fill="#F8F9FA"/>
<path d="M1756.59 94.9287H1776.88V113.464H1777.88C1781.39 107.118 1786.9 101.775 1794.42 97.4335C1801.93 93.092 1809.94 90.9212 1818.46 90.9212C1833.66 90.9212 1845.18 95.3462 1853.03 104.196C1861.04 113.046 1865.05 125.152 1865.05 140.515V219.163H1844.01V143.771C1844.01 121.395 1833.57 110.208 1812.7 110.208C1806.02 110.208 1800.01 112.128 1794.67 115.968C1789.32 119.809 1785.15 124.818 1782.14 130.997C1779.3 137.175 1777.88 143.687 1777.88 150.533V219.163H1756.59V94.9287Z" fill="#F8F9FA"/>
<path d="M1907.81 68.8797C1903.63 68.8797 1900.04 67.3768 1897.04 64.3712C1894.03 61.3655 1892.53 57.7754 1892.53 53.6009C1892.53 49.4264 1894.03 45.8363 1897.04 42.8306C1900.04 39.8249 1903.63 38.3221 1907.81 38.3221C1911.98 38.3221 1915.57 39.8249 1918.58 42.8306C1921.58 45.8363 1923.09 49.4264 1923.09 53.6009C1923.09 57.7754 1921.58 61.3655 1918.58 64.3712C1915.74 67.3768 1912.15 68.8797 1907.81 68.8797ZM1897.29 94.9287H1918.33V219.163H1897.29V94.9287Z" fill="#F8F9FA"/>
<path d="M121.789 126.046L205.742 77.5752C210.472 74.863 214.622 71.2456 217.954 66.9297C221.286 62.6138 223.735 57.6838 225.162 52.4213C226.588 47.1589 226.965 41.6669 226.269 36.259C225.573 30.8512 223.819 25.6332 221.107 20.9032C218.395 16.1733 214.777 12.0238 210.461 8.69179C206.145 5.35979 201.216 2.9105 195.953 1.48376C190.691 0.0570172 185.199 -0.319225 179.791 0.376499C174.383 1.07222 169.165 2.82629 164.435 5.53856L19.3574 89.4921L121.789 126.046Z" fill="#EA4335"/>
<path d="M185.05 250.298C194.138 250.296 202.973 247.298 210.185 241.766C217.396 236.234 222.582 228.478 224.939 219.701C227.295 210.923 226.691 201.612 223.219 193.213C219.748 184.813 213.603 177.793 205.737 173.24L60.8599 89.4871C51.4036 84.4057 40.3404 83.2053 30.0142 86.1402C19.688 89.0751 10.91 95.9148 5.53984 105.21C0.169705 114.506 -1.37064 125.527 1.24502 135.938C3.86069 146.35 10.4269 155.334 19.5527 160.988L164.63 244.741C170.818 248.385 177.869 250.304 185.05 250.298Z" fill="#4285F4"/>
<path d="M329.397 250.3C336.623 250.33 343.723 248.411 349.95 244.743L495.027 160.991L393.935 124.035L308.576 173.242C300.704 177.798 294.557 184.824 291.086 193.231C287.616 201.637 287.017 210.954 289.382 219.735C291.747 228.517 296.945 236.273 304.167 241.799C311.39 247.325 320.235 250.314 329.33 250.3H329.397Z" fill="#FBBC04"/>
<path d="M474.344 166.552C483.433 166.551 492.267 163.552 499.479 158.02C506.691 152.488 511.876 144.733 514.233 135.955C516.59 127.177 515.985 117.867 512.514 109.467C509.042 101.067 502.897 94.0469 495.031 89.4939L349.954 5.54044C345.246 2.82377 340.049 1.06101 334.659 0.352814C329.27 -0.355382 323.794 0.00486355 318.544 1.41296C307.941 4.25673 298.902 11.196 293.416 20.7043C287.929 30.2126 286.444 41.5109 289.288 52.1139C292.132 62.7168 299.071 71.7558 308.579 77.2423L453.657 160.995C459.932 164.664 467.075 166.583 474.344 166.552Z" fill="#0F9D58"/>
</svg>
