<?xml version="1.0" encoding="UTF-8"?>
<svg id="Layer_1" xmlns="http://www.w3.org/2000/svg" viewBox="0 0 1237.54 1080">
  <defs>
    <style>
      .cls-1 {
        fill-rule: evenodd;
      }

      .cls-1, .cls-2 {
        fill: #dd4f00;
      }

      .cls-3 {
        fill: #fff;
      }
    </style>
  </defs>
  <path class="cls-3" d="M897.1,415.32c-2.9,0-5.17-.73-6.82-2.18-1.55-1.45-2.32-3.34-2.32-5.66s.77-4.35,2.32-5.8c1.64-1.45,3.92-2.18,6.82-2.18,2.71,0,4.84.73,6.38,2.18,1.64,1.45,2.47,3.38,2.47,5.8s-.82,4.21-2.47,5.66c-1.55,1.45-3.67,2.18-6.38,2.18ZM876.06,487.85l17.12.87v-48.31l-15.67,2.18c-.1-1.35-.15-3.38-.15-6.09s.05-4.74.15-6.09c4.64-.39,9.82-.58,15.52-.58,2.61,0,6.82.1,12.62.29v58.75l14.65-1.02-.15,11.61h-43.95l-.15-11.61ZM803.43,487.85l12.48.87v-48.45l-12.19,1.02c-.19-2.51-.29-4.35-.29-5.51,0-1.26.1-3.14.29-5.66,4.26-.29,8.46-.44,12.62-.44,3.67,0,7.3.15,10.88.44l.87,15.81c9.19-8.22,19.58-14.02,31.19-17.41.87,4.06,1.31,8.9,1.31,14.51-11.41,1.74-22.1,5.56-32.06,11.46l-.15,34.38,21.03-1.02v11.61h-45.84l-.15-11.61ZM715,457.39c0-6.09-1.02-10.44-3.05-13.06s-5.42-3.92-10.15-3.92c-3.19,0-6.62.68-10.3,2.03-3.58,1.35-7.54,3.24-11.9,5.66v51.35h-12.48v-88.63l-9.72.73c-.1-1.35-.15-3.29-.15-5.8s.05-4.4.15-5.66c3.48-.29,7.16-.44,11.02-.44,2.03,0,5.75.1,11.17.29v37.28c4.93-3,9.82-5.27,14.65-6.82,4.93-1.55,9.57-2.32,13.93-2.32,6.67,0,11.56,1.84,14.65,5.51,3.19,3.67,4.79,9.28,4.79,16.83v49.03h-12.62v-42.07ZM617.45,501.49c-12.09,0-21.47-3.24-28.14-9.72-6.58-6.58-9.86-15.67-9.86-27.27s3.24-20.55,9.72-26.84c6.58-6.38,15.43-9.57,26.55-9.57,9.96,0,18.71,1.89,26.26,5.66v4.35c0,7.93-.29,15.67-.87,23.21l-4.93.15c-1.55,0-3.87-.1-6.96-.29l2.47-19.73c-5.22-1.74-10.35-2.61-15.38-2.61-7.45,0-13.3,2.18-17.55,6.53-4.26,4.35-6.38,10.69-6.38,19s2.18,14.75,6.53,19.29c4.45,4.45,10.88,6.67,19.29,6.67,7.54,0,15.09-1.16,22.63-3.48.97,3.29,1.5,6.72,1.6,10.3-7.83,2.9-16.15,4.35-24.95,4.35ZM509.73,478.71c0,3.67.97,6.62,2.9,8.85,1.93,2.13,4.84,3.19,8.7,3.19,7.45,0,15.18-3.19,23.21-9.57v-11.46c-8.51-.68-16.88-1.02-25.1-1.02-3.38,0-5.85.05-7.4.15-1.55,3.09-2.32,6.38-2.32,9.86ZM545.27,491.62c-3.58,3-7.59,5.37-12.04,7.11-4.45,1.74-9.04,2.61-13.78,2.61-6.77,0-12.09-1.89-15.96-5.66-3.77-3.77-5.66-9.04-5.66-15.81s1.89-13.1,5.66-19.87c4.64-.39,10.15-.58,16.54-.58,8.7,0,16.88.29,24.52.87v-4.06c0-5.61-1.11-9.77-3.34-12.48-2.13-2.8-5.75-4.21-10.88-4.21-3.38,0-7.45.44-12.19,1.31-4.74.87-9.43,2.18-14.07,3.92l-2.61-10.88c10.73-3.67,20.89-5.51,30.46-5.51,8.32,0,14.55,1.93,18.71,5.8,4.16,3.77,6.24,10.3,6.24,19.58v34.96l7.54-.58c.1,1.16.15,3.05.15,5.66s-.05,4.35-.15,5.51c-2.71.39-5.95.58-9.72.58-2.9,0-5.66-.15-8.27-.44l-1.16-7.83ZM417.07,423.01l.87-5.37-8.85.73-.15-6.24.15-6.24c5.22-.19,8.85-.29,10.88-.29,2.42,0,5.75.1,10.01.29v51.93c5.8-3.09,11.27-7.59,16.39-13.49,5.22-5.9,9.62-12.28,13.2-19.15,3.67-6.96,6.14-13.39,7.4-19.29,3.58-.1,8.32-.15,14.22-.15-1.64,7.64-4.69,15.52-9.14,23.65-4.45,8.03-9.86,15.38-16.25,22.05,5.03,6.67,10.2,14.46,15.52,23.36,5.42,8.9,10.01,17.12,13.78,24.66h-14.94c-2.71-5.9-6.19-12.72-10.44-20.45-4.26-7.83-8.17-14.51-11.75-20.02-5.9,5.03-11.9,8.8-17.99,11.31v29.3l-12.91-.15v-76.45ZM763.64,415.39c-2.9,0-5.17-.73-6.82-2.18-1.55-1.45-2.32-3.34-2.32-5.66s.77-4.35,2.32-5.8c1.64-1.45,3.92-2.18,6.82-2.18,2.71,0,4.84.73,6.38,2.18,1.64,1.45,2.47,3.38,2.47,5.8s-.82,4.21-2.47,5.66c-1.55,1.45-3.67,2.18-6.38,2.18ZM742.6,487.93l17.12.87v-48.31l-15.67,2.18c-.1-1.35-.15-3.38-.15-6.09s.05-4.74.15-6.09c4.64-.39,9.82-.58,15.52-.58,2.61,0,6.82.1,12.62.29v58.75l14.65-1.02-.15,11.61h-43.95l-.15-11.61Z"/>
  <path class="cls-3" d="M872.79,586.76c12.66,0,25.06-.27,37.19-.8-.54-5.71-2.45-10.08-5.75-13.11-3.21-3.03-7.49-4.55-12.84-4.55s-9.41,1.56-12.71,4.68c-3.21,3.12-5.17,7.71-5.89,13.78ZM895.26,625.96c-10.61,0-18.95-2.99-25.01-8.96-6.06-5.97-9.1-14.22-9.1-24.75,0-6.78,1.25-12.71,3.75-17.79,2.5-5.17,6.06-9.14,10.7-11.9,4.64-2.76,10.08-4.15,16.32-4.15,5.8,0,10.88,1.29,15.25,3.88,4.37,2.5,7.71,6.06,10.03,10.7,2.41,4.55,3.61,9.81,3.61,15.78,0,2.23-.13,4.24-.4,6.02-13.55.89-29.52,1.34-47.89,1.34.62,6.51,2.85,11.46,6.69,14.85,3.83,3.3,9.54,4.95,17.12,4.95,3.03,0,6.47-.31,10.3-.94,3.83-.71,7.45-1.56,10.83-2.54.89,2.68,1.43,5.89,1.61,9.63-3.3,1.16-7.04,2.1-11.24,2.81-4.1.71-8.29,1.07-12.57,1.07ZM792.97,592.78c0,7.31,1.25,13.06,3.75,17.26,2.5,4.1,6.06,6.15,10.7,6.15,3.3,0,6.64-.71,10.03-2.14,3.48-1.52,7.22-3.83,11.24-6.96v-35.71c-6.06-2.14-11.55-3.21-16.45-3.21-5.89,0-10.57,2.18-14.04,6.55-3.48,4.37-5.22,10.39-5.22,18.06ZM806.34,626.09c-7.4,0-13.42-2.76-18.06-8.29-4.55-5.62-6.82-13.69-6.82-24.21,0-7.31,1.25-13.6,3.75-18.86,2.59-5.26,6.11-9.27,10.57-12.04,4.55-2.85,9.81-4.28,15.78-4.28,5.17,0,10.88,1.07,17.12,3.21v-29.16c2.68-.18,4.46-.27,5.35-.27,1.69,0,3.75.13,6.15.4v81.46l8.03-.54c.18,2.14.27,3.88.27,5.22,0,1.25-.09,3.03-.27,5.35-2.5.36-5.53.54-9.1.54-3.3,0-6.2-.18-8.69-.54l-1.07-7.22c-7.85,6.15-15.52,9.23-23.01,9.23ZM714.2,592.25c0,7.58,1.78,13.47,5.35,17.66,3.66,4.1,8.61,6.15,14.85,6.15s11.15-2.1,14.71-6.29c3.66-4.19,5.48-10.08,5.48-17.66s-1.83-13.42-5.48-17.52c-3.57-4.19-8.47-6.29-14.71-6.29s-11.19,2.1-14.85,6.29c-3.57,4.19-5.35,10.08-5.35,17.66ZM734.4,626.09c-6.42,0-12.04-1.34-16.85-4.01-4.82-2.76-8.52-6.69-11.1-11.77-2.59-5.17-3.88-11.19-3.88-18.06s1.29-12.97,3.88-18.06c2.59-5.08,6.29-8.96,11.1-11.64,4.82-2.76,10.43-4.15,16.85-4.15,9.72,0,17.43,3.03,23.14,9.1,5.71,6.06,8.56,14.31,8.56,24.75,0,6.87-1.29,12.89-3.88,18.06-2.59,5.08-6.29,9.01-11.1,11.77-4.73,2.68-10.3,4.01-16.72,4.01ZM659.88,626.09c-13.64,0-24.17-3.97-31.57-11.9-7.4-7.94-11.1-19.13-11.1-33.57,0-9.27,1.61-17.26,4.82-23.94,3.3-6.69,7.94-11.77,13.91-15.25,6.06-3.57,13.2-5.35,21.4-5.35,5.26,0,10.52.58,15.78,1.74,5.35,1.07,9.94,2.63,13.78,4.68l-1.87,33.17-11.77-.8,2.81-24.88c-5.89-1.96-12.08-2.94-18.59-2.94-8.74,0-15.61,2.94-20.6,8.83-4.99,5.89-7.49,14.13-7.49,24.75s2.72,19.44,8.16,25.41c5.44,5.97,13.38,8.96,23.81,8.96,3.75,0,7.76-.4,12.04-1.2,4.37-.8,8.52-1.87,12.44-3.21l2.14,10.43c-3.75,1.52-8.16,2.72-13.24,3.61-5.08.98-10.03,1.47-14.85,1.47ZM511.65,600.67c0,4.55,1.07,8.11,3.21,10.7,2.23,2.59,5.44,3.88,9.63,3.88s7.89-.94,11.64-2.81c3.83-1.87,7.4-4.64,10.7-8.29l-15.65-17.92c-4.46-.18-7.45-.27-8.96-.27s-4.32.09-8.43.27c-.8,2.59-1.38,4.95-1.74,7.09-.27,2.05-.4,4.5-.4,7.36ZM573.85,618.73c-1.87,2.5-4.5,4.95-7.89,7.36l-12.57-14.45c-9.1,9.63-19.44,14.45-31.03,14.45-6.78,0-12.26-1.92-16.45-5.75-4.1-3.92-6.15-9.99-6.15-18.19,0-4.37.4-8.52,1.2-12.44.8-4.01,2.05-8.2,3.75-12.57,5.26-.27,9.85-.4,13.78-.4h4.41l-.54-.67c-3.39-3.83-6.02-7.49-7.89-10.97-1.87-3.48-2.81-7.13-2.81-10.97,0-5.26,1.92-9.59,5.75-12.97,3.83-3.39,9.45-5.08,16.85-5.08,4.46,0,8.61.45,12.44,1.34,3.83.8,8.07,2.14,12.71,4.01l-2.27,9.63c-4.46-1.69-8.38-2.9-11.77-3.61-3.3-.8-6.69-1.2-10.17-1.2-4.01,0-7.04.8-9.1,2.41-1.96,1.61-2.94,3.7-2.94,6.29,0,2.14.62,4.37,1.87,6.69,1.25,2.23,3.12,4.77,5.62,7.62l22.2,25.55c2.5-7.58,4.28-15.87,5.35-24.88h10.3c-1.34,12.31-4.1,23.36-8.29,33.17l13.64,15.65Z"/>
  <path class="cls-1" d="M308.67,522.84c31.7.8,47.73-25.97,46.71-51.21-1.16-28.87-36.7-49.83-69.78-43.01-52.3,10.88-43.81,46.5-88.49,73.62,41.66-4.52,60.4,3.83,77,11.22,10.6,4.72,20.32,9.04,34.56,9.38h0ZM184.13,502.31c-38.23-5.51-31.99-65.14,5.51-70.29,16.97-2.32,34.96,3.05,50.63,13.35-4.35,4.93-8.05,10.23-11.9,15.6-8.41,11.9-17.12,24.15-35.03,35.11-4.57,2.97-7.54,4.93-9.21,6.24h0ZM317.45,490.56c2.03.29,3.34,2.1,3.05,4.13-.29,1.96-2.18,3.34-4.13,3.05-1.96-.36-3.34-2.18-3.05-4.13.36-2.03,2.18-3.34,4.13-3.05ZM301.86,496.29c1.96.29,3.34,2.1,3.05,4.13-.36,1.96-2.18,3.34-4.13,2.97-2.03-.29-3.34-2.1-3.05-4.13.29-1.96,2.18-3.34,4.13-2.97ZM323.4,505.28c2.03.29,3.34,2.18,3.05,4.13-.29,1.96-2.1,3.34-4.13,3.05-1.96-.29-3.34-2.18-3.05-4.13.36-1.96,2.18-3.34,4.13-3.05ZM380.33,618.68c11.52,1.27,22.09,2.44,35.77-1.55,30.47-8.85,37.57-39.17,29.01-62.96-9.87-27.13-50.12-36.34-79.5-19.8-46.64,26.19-27.78,57.52-62.09,96.98,38.35-16.92,58.75-14.66,76.81-12.67ZM320.86,582.54c2.03-6.31,3.99-12.48,6.67-18.5-18.06-5-36.92-4.71-52.37,2.61-34.38,16.32-21.98,75.58,16.61,68.62,1.23-2.1,3.19-4.86,6.31-8.7,13.78-15.81,18.35-30.18,22.78-44.03h0ZM414.72,583.7c1.96-.29,3.77,1.09,4.13,3.05.29,1.96-1.09,3.84-3.05,4.13-1.96.29-3.84-1.02-4.13-3.05-.29-1.96,1.02-3.77,3.05-4.13ZM401.52,593.92c1.96-.29,3.84,1.02,4.13,3.05.29,1.96-1.02,3.77-2.97,4.13-2.03.29-3.84-1.09-4.21-3.05-.29-1.96,1.09-3.84,3.05-4.13h0ZM424.81,595.96c2.03-.29,3.84,1.09,4.21,3.05.29,1.96-1.09,3.84-3.05,4.13-1.96.29-3.84-1.02-4.13-3.05-.29-1.96,1.02-3.84,2.97-4.13h0Z"/>
  <path class="cls-2" d="M1022.24,629.76h82.18v-14.89h-82.18v14.89ZM957.1,619.23l10.53,10.53,48.69-48.69-48.69-48.67-10.53,10.53,38.16,38.15-38.16,38.16Z"/>
</svg>