<svg width="513" height="228" viewBox="0 0 513 228" fill="none" xmlns="http://www.w3.org/2000/svg">
<path d="M488.6 16.32C485.7 16.32 483.43 15.59 481.78 14.14C480.23 12.69 479.46 10.8 479.46 8.48001C479.46 6.16001 480.23 4.12999 481.78 2.67999C483.42 1.22999 485.7 0.5 488.6 0.5C491.31 0.5 493.44 1.22999 494.98 2.67999C496.62 4.12999 497.45 6.06001 497.45 8.48001C497.45 10.9 496.63 12.69 494.98 14.14C493.43 15.59 491.31 16.32 488.6 16.32ZM467.56 88.85L484.68 89.72V41.41L469.01 43.59C468.91 42.24 468.86 40.21 468.86 37.5C468.86 34.79 468.91 32.76 469.01 31.41C473.65 31.02 478.83 30.83 484.53 30.83C487.14 30.83 491.35 30.93 497.15 31.12V89.87L511.8 88.85L511.65 100.46H467.7L467.55 88.85H467.56ZM394.93 88.85L407.41 89.72V41.27L395.22 42.29C395.03 39.78 394.93 37.94 394.93 36.78C394.93 35.52 395.03 33.64 395.22 31.12C399.48 30.83 403.68 30.68 407.84 30.68C411.51 30.68 415.14 30.83 418.72 31.12L419.59 46.93C428.78 38.71 439.17 32.91 450.78 29.52C451.65 33.58 452.09 38.42 452.09 44.03C440.68 45.77 429.99 49.59 420.03 55.49L419.88 89.87L440.91 88.85V100.46H395.07L394.92 88.85H394.93ZM306.5 58.39C306.5 52.3 305.48 47.95 303.45 45.33C301.42 42.72 298.03 41.41 293.3 41.41C290.11 41.41 286.68 42.09 283 43.44C279.42 44.79 275.46 46.68 271.1 49.1V100.45H258.62V11.82L248.9 12.55C248.8 11.2 248.75 9.26 248.75 6.75C248.75 4.24 248.8 2.35 248.9 1.09C252.38 0.799996 256.06 0.649994 259.92 0.649994C261.95 0.649994 265.67 0.750002 271.09 0.940002V38.22C276.02 35.22 280.91 32.95 285.74 31.4C290.67 29.85 295.31 29.08 299.67 29.08C306.34 29.08 311.23 30.92 314.32 34.59C317.51 38.26 319.11 43.87 319.11 51.42V100.45H306.49V58.38L306.5 58.39ZM208.95 102.49C196.86 102.49 187.48 99.25 180.81 92.77C174.23 86.19 170.95 77.1 170.95 65.5C170.95 53.9 174.19 44.95 180.67 38.66C187.25 32.28 196.1 29.09 207.22 29.09C217.18 29.09 225.93 30.98 233.48 34.75V39.1C233.48 47.03 233.19 54.77 232.61 62.31L227.68 62.46C226.13 62.46 223.81 62.36 220.72 62.17L223.19 42.44C217.97 40.7 212.84 39.83 207.81 39.83C200.36 39.83 194.51 42.01 190.26 46.36C186 50.71 183.88 57.05 183.88 65.36C183.88 73.67 186.06 80.11 190.41 84.65C194.86 89.1 201.29 91.32 209.7 91.32C217.24 91.32 224.79 90.16 232.33 87.84C233.3 91.13 233.83 94.56 233.93 98.14C226.1 101.04 217.78 102.49 208.98 102.49H208.95ZM101.23 79.71C101.23 83.38 102.2 86.33 104.13 88.56C106.06 90.69 108.97 91.75 112.83 91.75C120.28 91.75 128.01 88.56 136.04 82.18V70.72C127.53 70.04 119.16 69.7 110.94 69.7C107.56 69.7 105.09 69.75 103.54 69.85C101.99 72.94 101.22 76.23 101.22 79.71H101.23ZM136.77 92.62C133.19 95.62 129.18 97.99 124.73 99.73C120.28 101.47 115.69 102.34 110.95 102.34C104.18 102.34 98.8599 100.45 94.9899 96.68C91.2199 92.91 89.3299 87.64 89.3299 80.87C89.3299 74.1 91.2199 67.77 94.9899 61C99.6299 60.61 105.14 60.42 111.53 60.42C120.23 60.42 128.41 60.71 136.05 61.29V57.23C136.05 51.62 134.94 47.46 132.71 44.75C130.58 41.95 126.96 40.54 121.83 40.54C118.45 40.54 114.38 40.98 109.64 41.85C104.9 42.72 100.21 44.03 95.5699 45.77L92.9599 34.89C103.69 31.22 113.85 29.38 123.42 29.38C131.74 29.38 137.97 31.31 142.13 35.18C146.29 38.95 148.37 45.48 148.37 54.76V89.72L155.91 89.14C156.01 90.3 156.06 92.19 156.06 94.8C156.06 97.41 156.01 99.15 155.91 100.31C153.2 100.7 149.96 100.89 146.19 100.89C143.29 100.89 140.53 100.74 137.92 100.45L136.76 92.62H136.77ZM8.56995 24.01L9.43994 18.64L0.589935 19.37L0.439941 13.13L0.589935 6.89001C5.80994 6.70001 9.43994 6.60001 11.4699 6.60001C13.8899 6.60001 17.2199 6.70001 21.4799 6.89001V58.82C27.2799 55.73 32.7499 51.23 37.8699 45.33C43.0899 39.43 47.4899 33.05 51.0699 26.18C54.7399 19.22 57.2099 12.79 58.4699 6.89001C62.0499 6.79001 66.7899 6.73999 72.6899 6.73999C71.0499 14.38 67.9999 22.26 63.5499 30.39C59.0999 38.42 53.6899 45.77 47.2999 52.44C52.3299 59.11 57.4999 66.9 62.8199 75.8C68.2399 84.7 72.8299 92.92 76.5999 100.46H61.6599C58.9499 94.56 55.4699 87.74 51.2199 80.01C46.9599 72.18 43.0499 65.5 39.4699 59.99C33.5699 65.02 27.57 68.79 21.4799 71.3V100.6L8.56995 100.45V24V24.01ZM355.14 16.39C352.24 16.39 349.97 15.66 348.32 14.21C346.77 12.76 346 10.87 346 8.54999C346 6.22999 346.77 4.2 348.32 2.75C349.96 1.3 352.24 0.570007 355.14 0.570007C357.85 0.570007 359.98 1.3 361.52 2.75C363.16 4.2 363.99 6.12999 363.99 8.54999C363.99 10.97 363.17 12.76 361.52 14.21C359.97 15.66 357.85 16.39 355.14 16.39ZM334.1 88.93L351.22 89.8V41.49L335.55 43.67C335.45 42.32 335.4 40.29 335.4 37.58C335.4 34.87 335.45 32.84 335.55 31.49C340.19 31.1 345.37 30.91 351.07 30.91C353.68 30.91 357.89 31.01 363.69 31.2V89.95L378.34 88.93L378.19 100.54H334.24L334.09 88.93H334.1Z" fill="white"/>
<path d="M464.29 187.76C476.95 187.76 489.35 187.49 501.48 186.96C500.94 181.25 499.03 176.88 495.73 173.85C492.52 170.82 488.24 169.3 482.89 169.3C477.54 169.3 473.48 170.86 470.18 173.98C466.97 177.1 465.01 181.69 464.29 187.76ZM486.76 226.96C476.15 226.96 467.81 223.97 461.75 218C455.69 212.03 452.65 203.78 452.65 193.25C452.65 186.47 453.9 180.54 456.4 175.46C458.9 170.29 462.46 166.32 467.1 163.56C471.74 160.8 477.18 159.41 483.42 159.41C489.22 159.41 494.3 160.7 498.67 163.29C503.04 165.79 506.38 169.35 508.7 173.99C511.11 178.54 512.31 183.8 512.31 189.77C512.31 192 512.18 194.01 511.91 195.79C498.36 196.68 482.39 197.13 464.02 197.13C464.64 203.64 466.87 208.59 470.71 211.98C474.54 215.28 480.25 216.93 487.83 216.93C490.86 216.93 494.3 216.62 498.13 215.99C501.96 215.28 505.58 214.43 508.96 213.45C509.85 216.13 510.39 219.34 510.57 223.08C507.27 224.24 503.53 225.18 499.33 225.89C495.23 226.6 491.04 226.96 486.76 226.96ZM384.47 193.78C384.47 201.09 385.72 206.84 388.22 211.04C390.72 215.14 394.28 217.19 398.92 217.19C402.22 217.19 405.56 216.48 408.95 215.05C412.43 213.53 416.17 211.22 420.19 208.09V172.38C414.13 170.24 408.64 169.17 403.74 169.17C397.85 169.17 393.17 171.35 389.7 175.72C386.22 180.09 384.48 186.11 384.48 193.78H384.47ZM397.84 227.09C390.44 227.09 384.42 224.33 379.78 218.8C375.23 213.18 372.96 205.11 372.96 194.59C372.96 187.28 374.21 180.99 376.71 175.73C379.3 170.47 382.82 166.46 387.28 163.69C391.83 160.84 397.09 159.41 403.06 159.41C408.23 159.41 413.94 160.48 420.18 162.62V133.46C422.86 133.28 424.64 133.19 425.53 133.19C427.22 133.19 429.28 133.32 431.68 133.59V215.05L439.71 214.51C439.89 216.65 439.98 218.39 439.98 219.73C439.98 220.98 439.89 222.76 439.71 225.08C437.21 225.44 434.18 225.62 430.61 225.62C427.31 225.62 424.41 225.44 421.92 225.08L420.85 217.86C413 224.01 405.33 227.09 397.84 227.09ZM305.7 193.25C305.7 200.83 307.48 206.72 311.05 210.91C314.71 215.01 319.66 217.06 325.9 217.06C332.14 217.06 337.05 214.96 340.61 210.77C344.27 206.58 346.09 200.69 346.09 193.11C346.09 185.53 344.26 179.69 340.61 175.59C337.04 171.4 332.14 169.3 325.9 169.3C319.66 169.3 314.71 171.4 311.05 175.59C307.48 179.78 305.7 185.67 305.7 193.25ZM325.9 227.09C319.48 227.09 313.86 225.75 309.05 223.08C304.23 220.32 300.53 216.39 297.95 211.31C295.36 206.14 294.07 200.12 294.07 193.25C294.07 186.38 295.36 180.28 297.95 175.19C300.54 170.11 304.24 166.23 309.05 163.55C313.87 160.79 319.48 159.4 325.9 159.4C335.62 159.4 343.33 162.43 349.04 168.5C354.75 174.56 357.6 182.81 357.6 193.25C357.6 200.12 356.31 206.14 353.72 211.31C351.13 216.39 347.43 220.32 342.62 223.08C337.89 225.76 332.32 227.09 325.9 227.09ZM251.38 227.09C237.74 227.09 227.21 223.12 219.81 215.19C212.41 207.25 208.71 196.06 208.71 181.62C208.71 172.35 210.32 164.36 213.53 157.68C216.83 150.99 221.47 145.91 227.44 142.43C233.5 138.86 240.64 137.08 248.84 137.08C254.1 137.08 259.36 137.66 264.62 138.82C269.97 139.89 274.56 141.45 278.4 143.5L276.53 176.67L264.76 175.87L267.57 150.99C261.68 149.03 255.49 148.05 248.98 148.05C240.24 148.05 233.37 150.99 228.38 156.88C223.39 162.77 220.89 171.01 220.89 181.63C220.89 192.25 223.61 201.07 229.05 207.04C234.49 213.01 242.43 216 252.86 216C256.61 216 260.62 215.6 264.9 214.8C269.27 214 273.42 212.93 277.34 211.59L279.48 222.02C275.73 223.54 271.32 224.74 266.24 225.63C261.16 226.61 256.21 227.1 251.39 227.1L251.38 227.09ZM103.15 201.67C103.15 206.22 104.22 209.78 106.36 212.37C108.59 214.96 111.8 216.25 115.99 216.25C120.18 216.25 123.88 215.31 127.63 213.44C131.46 211.57 135.03 208.8 138.33 205.15L122.68 187.23C118.22 187.05 115.23 186.96 113.72 186.96C112.21 186.96 109.4 187.05 105.29 187.23C104.49 189.82 103.91 192.18 103.55 194.32C103.28 196.37 103.15 198.82 103.15 201.68V201.67ZM165.35 219.73C163.48 222.23 160.85 224.68 157.46 227.09L144.89 212.64C135.79 222.27 125.45 227.09 113.86 227.09C107.08 227.09 101.6 225.17 97.41 221.34C93.31 217.42 91.26 211.35 91.26 203.15C91.26 198.78 91.66 194.63 92.46 190.71C93.26 186.7 94.51 182.51 96.21 178.14C101.47 177.87 106.06 177.74 109.99 177.74H114.4L113.86 177.07C110.47 173.24 107.84 169.58 105.97 166.1C104.1 162.62 103.16 158.97 103.16 155.13C103.16 149.87 105.08 145.54 108.91 142.16C112.74 138.77 118.36 137.08 125.76 137.08C130.22 137.08 134.37 137.53 138.2 138.42C142.03 139.22 146.27 140.56 150.91 142.43L148.64 152.06C144.18 150.37 140.26 149.16 136.87 148.45C133.57 147.65 130.18 147.25 126.7 147.25C122.69 147.25 119.66 148.05 117.6 149.66C115.64 151.27 114.66 153.36 114.66 155.95C114.66 158.09 115.28 160.32 116.53 162.64C117.78 164.87 119.65 167.41 122.15 170.26L144.35 195.81C146.85 188.23 148.63 179.94 149.7 170.93H160C158.66 183.24 155.9 194.29 151.71 204.1L165.35 219.75V219.73Z" fill="white"/>
</svg>
